<?xml version="1.0" encoding="UTF-8"?>
<svg xmlns="http://www.w3.org/2000/svg" width="1024" height="1024" viewBox="0 0 1024 1024" role="img" aria-labelledby="title desc">
  <title id="title">Prompt B CD-to-waveform icon variant 01</title>
  <desc id="desc">A stylized compact disc whose right-side grooves morph into a clean audio waveform; no text.</desc>
  <metadata><![CDATA[{"prompt":"B","variant":"01","format":"icon","width":1024,"height":1024,"cornerRadiusPercent":18,"transparentOutsideRoundedSquare":true,"text":"none","palette":{"midnightBlue":"#081B2E","midnightBlue2":"#0D263F","discMist":"#EAF4F8","discGroove":"#9DB7C6","cyanAccent":"#5ED9F4"}}]]></metadata>
  <defs>
    <linearGradient id="bg" x1="128" y1="96" x2="896" y2="928" gradientUnits="userSpaceOnUse">
      <stop offset="0" stop-color="#0D263F"/>
      <stop offset="1" stop-color="#081B2E"/>
    </linearGradient>
    <filter id="matteShadow" x="-12%" y="-12%" width="124%" height="130%" color-interpolation-filters="sRGB">
      <feOffset in="SourceAlpha" dx="0" dy="22" result="offset"/>
      <feGaussianBlur in="offset" stdDeviation="18" result="blur"/>
      <feFlood flood-color="#020812" flood-opacity="0.28" result="color"/>
      <feComposite in="color" in2="blur" operator="in" result="shadow"/>
      <feMerge><feMergeNode in="shadow"/><feMergeNode in="SourceGraphic"/></feMerge>
    </filter>
  </defs>
  <rect x="0" y="0" width="1024" height="1024" rx="184" fill="url(#bg)"/>
  <g filter="url(#matteShadow)" fill="none" stroke-linecap="round" stroke-linejoin="round">
    <circle cx="386" cy="512" r="238" fill="#EAF4F8" stroke="#EAF4F8" stroke-width="18"/>
    <circle cx="386" cy="512" r="178" stroke="#9DB7C6" stroke-width="22" opacity="0.62"/>
    <circle cx="386" cy="512" r="112" stroke="#9DB7C6" stroke-width="18" opacity="0.42"/>
    <circle cx="386" cy="512" r="58" fill="#081B2E" stroke="#081B2E" stroke-width="14"/>
    <circle cx="386" cy="512" r="32" fill="#5ED9F4" stroke="#5ED9F4" stroke-width="10"/>
    <path d="M466 350 C536 388 565 440 602 474" stroke="#9DB7C6" stroke-width="18" opacity="0.42"/>
    <path d="M466 674 C536 636 565 584 602 550" stroke="#9DB7C6" stroke-width="18" opacity="0.42"/>
    <path d="M586 512 C620 512 633 420 666 420 C698 420 710 606 742 606 C772 606 786 464 816 464 C846 464 862 560 890 560" stroke="#5ED9F4" stroke-width="54"/>
    <path d="M586 512 C620 512 633 420 666 420 C698 420 710 606 742 606 C772 606 786 464 816 464 C846 464 862 560 890 560" stroke="#EAF4F8" stroke-width="20" opacity="0.92"/>
  </g>
</svg>